<?xml version="1.0" encoding="UTF-8" standalone="no" ?>
<!DOCTYPE svg PUBLIC "-//W3C//DTD SVG 1.1//EN" "http://www.w3.org/Graphics/SVG/1.1/DTD/svg11.dtd">
<svg xmlns="http://www.w3.org/2000/svg" xmlns:xlink="http://www.w3.org/1999/xlink" version="1.1" width="1080" height="1080" viewBox="0 0 1080 1080" xml:space="preserve">
<desc>Created with Fabric.js 5.2.4</desc>
<defs>
</defs>
<g transform="matrix(1 0 0 1 540 540)" id="1d60d8f9-9f2d-4c09-a238-e5719d94afd1"  >
<rect style="stroke: none; stroke-width: 1; stroke-dasharray: none; stroke-linecap: butt; stroke-dashoffset: 0; stroke-linejoin: miter; stroke-miterlimit: 4; fill: rgb(255,255,255); fill-rule: nonzero; opacity: 1; visibility: hidden;" vector-effect="non-scaling-stroke"  x="-540" y="-540" rx="0" ry="0" width="1080" height="1080" />
</g>
<g transform="matrix(1 0 0 1 540 540)" id="74647cec-2fda-433d-aecc-da895fecdfda"  >
</g>
<g transform="matrix(NaN NaN NaN NaN 0 0)"  >
<g style=""   >
</g>
</g>
<g transform="matrix(NaN NaN NaN NaN 0 0)"  >
<g style=""   >
</g>
</g>
<g transform="matrix(NaN NaN NaN NaN 0 0)"  >
<g style=""   >
</g>
</g>
<g transform="matrix(4.23 0 0 4.23 228.37 520.12)"  >
<g style="" vector-effect="non-scaling-stroke"   >
		<g transform="matrix(1 0 0 1 0 0)"  >
<path style="stroke: none; stroke-width: 1; stroke-dasharray: none; stroke-linecap: butt; stroke-dashoffset: 0; stroke-linejoin: miter; stroke-miterlimit: 4; fill: rgb(41,121,255); fill-rule: nonzero; opacity: 1;" vector-effect="non-scaling-stroke"  transform=" translate(-24, -24)" d="M 40 4 L 24 4 C 12.954 4 4 12.954 4 24 C 4 35.046 12.954 44 24 44 C 35.046 44 44 35.046 44 24 L 44 8 C 44 5.791 42.209 4 40 4 z" stroke-linecap="round" />
</g>
		<g transform="matrix(1 0 0 1 10 0.91)"  >
<path style="stroke: none; stroke-width: 1; stroke-dasharray: none; stroke-linecap: butt; stroke-dashoffset: 0; stroke-linejoin: miter; stroke-miterlimit: 4; fill: rgb(21,101,192); fill-rule: nonzero; opacity: 1;" vector-effect="non-scaling-stroke"  transform=" translate(-34, -24.91)" d="M 35.798 19.62 L 31 24.414 L 31 25.412000000000003 L 35.798 30.206000000000003 C 36.242 30.648 37 30.335 37 29.708 L 37 20.116999999999997 C 37 19.491 36.242 19.177 35.798 19.62 z" stroke-linecap="round" />
</g>
		<g transform="matrix(1 0 0 1 10 -0.5)"  >
<path style="stroke: none; stroke-width: 1; stroke-dasharray: none; stroke-linecap: butt; stroke-dashoffset: 0; stroke-linejoin: miter; stroke-miterlimit: 4; fill: rgb(236,239,241); fill-rule: nonzero; opacity: 1;" vector-effect="non-scaling-stroke"  transform=" translate(-34, -23.5)" d="M 35.798 18.207 L 31 23.001 L 31 23.999000000000002 L 35.798 28.793000000000003 C 36.242 29.236 37 28.922 37 28.295 L 37 18.704 C 37 18.078 36.242 17.764 35.798 18.207 z" stroke-linecap="round" />
</g>
		<g transform="matrix(1 0 0 1 8 -0.5)"  >
<polygon style="stroke: none; stroke-width: 1; stroke-dasharray: none; stroke-linecap: butt; stroke-dashoffset: 0; stroke-linejoin: miter; stroke-miterlimit: 4; fill: rgb(189,189,189); fill-rule: nonzero; opacity: 1;" vector-effect="non-scaling-stroke"  points="1,-2.5 -1,-0.5 -1,0.5 1,2.5 " />
</g>
		<g transform="matrix(1 0 0 1 -1 0.5)"  >
<path style="stroke: none; stroke-width: 1; stroke-dasharray: none; stroke-linecap: butt; stroke-dashoffset: 0; stroke-linejoin: miter; stroke-miterlimit: 4; fill: rgb(21,101,192); fill-rule: nonzero; opacity: 1;" vector-effect="non-scaling-stroke"  transform=" translate(-23, -24.5)" d="M 29 32 L 17 32 C 15.343 32 14 30.657 14 29 L 14 20 C 14 18.343 15.343 17 17 17 L 29 17 C 30.657 17 32 18.343 32 20 L 32 29 C 32 30.657 30.657 32 29 32 z" stroke-linecap="round" />
</g>
		<g transform="matrix(1 0 0 1 -1 -0.5)"  >
<path style="stroke: none; stroke-width: 1; stroke-dasharray: none; stroke-linecap: butt; stroke-dashoffset: 0; stroke-linejoin: miter; stroke-miterlimit: 4; fill: rgb(255,255,255); fill-rule: nonzero; opacity: 1;" vector-effect="non-scaling-stroke"  transform=" translate(-23, -23.5)" d="M 29 31 L 17 31 C 15.343 31 14 29.657 14 28 L 14 19 C 14 17.343 15.343 16 17 16 L 29 16 C 30.657 16 32 17.343 32 19 L 32 28 C 32 29.657 30.657 31 29 31 z" stroke-linecap="round" />
</g>
</g>
</g>
<g transform="matrix(1 0 0 1 635.56 520.21)" style="" id="4e164e44-9d49-476c-b699-bf8392a5df6c"  >
		<text xml:space="preserve" font-family="Raleway" font-size="105" font-style="normal" font-weight="900" style="stroke: none; stroke-width: 1; stroke-dasharray: none; stroke-linecap: butt; stroke-dashoffset: 0; stroke-linejoin: miter; stroke-miterlimit: 4; fill: rgb(255,255,255); fill-rule: nonzero; opacity: 1; white-space: pre;" ><tspan x="-300.8" y="32.98" >StreamLine</tspan></text>
</g>
</svg>